<svg xmlns="http://www.w3.org/2000/svg" width="120" height="120" viewBox="0 0 120 120" fill="none">
  <!-- Soft halo -->
  <circle cx="60" cy="60" r="50" fill="#A9D38B" opacity="0.15"/>
  <!-- Cell membrane -->
  <circle cx="60" cy="60" r="42" fill="none" stroke="#C4C0FF" stroke-width="2.5" opacity="0.9"/>
  <circle cx="60" cy="60" r="42" fill="#7A6FD8" opacity="0.18"/>
  <!-- Recycling arrows around -->
  <path d="M60 22 A 38 38 0 0 1 92 50 L 86 48 L 92 50 L 88 56" stroke="#A9D38B" stroke-width="3" fill="none" stroke-linecap="round" stroke-linejoin="round"/>
  <path d="M92 70 A 38 38 0 0 1 60 98 L 64 92 L 60 98 L 56 92" stroke="#A9D38B" stroke-width="3" fill="none" stroke-linecap="round" stroke-linejoin="round"/>
  <path d="M28 70 A 38 38 0 0 1 60 22 L 56 26 L 60 22 L 64 26" stroke="#A9D38B" stroke-width="3" fill="none" stroke-linecap="round" stroke-linejoin="round" opacity="0.7"/>
  <!-- Nucleus -->
  <circle cx="60" cy="60" r="12" fill="#C4C0FF"/>
  <circle cx="60" cy="60" r="6" fill="#FFE3B0"/>
  <!-- Organelles -->
  <circle cx="42" cy="46" r="3.5" fill="#A9D38B" opacity="0.9"/>
  <circle cx="78" cy="44" r="3" fill="#A9D38B" opacity="0.85"/>
  <circle cx="44" cy="78" r="3" fill="#A9D38B" opacity="0.85"/>
  <circle cx="78" cy="76" r="3.5" fill="#A9D38B" opacity="0.9"/>
</svg>
